<?xml version="1.0" standalone="no"?>
<!DOCTYPE svg PUBLIC "-//W3C//DTD SVG 20010904//EN"
 "http://www.w3.org/TR/2001/REC-SVG-20010904/DTD/svg10.dtd">
<svg version="1.0" xmlns="http://www.w3.org/2000/svg"
 width="595.000000pt" height="239.000000pt" viewBox="0 0 595.000000 239.000000"
 preserveAspectRatio="xMidYMid meet">

<g transform="translate(0.000000,239.000000) scale(0.100000,-0.100000)"
fill="#000000" stroke="none">
<path d="M473 2043 c-51 -10 -53 -21 -53 -386 0 -205 4 -346 10 -357 18 -34
67 -40 325 -39 138 0 270 0 294 0 37 -1 49 -7 82 -40 l39 -39 0 -271 c0 -337
-2 -331 112 -331 97 0 98 1 98 176 l0 144 159 0 c154 0 160 -1 175 -22 14 -19
16 -69 16 -345 0 -189 4 -332 10 -348 6 -15 24 -32 45 -40 41 -18 159 -20 204
-4 61 22 61 17 61 564 0 336 -3 503 -11 517 -24 44 -57 48 -424 48 -392 0
-392 0 -426 73 -17 38 -19 69 -19 353 0 303 -1 311 -21 330 -20 18 -41 19
-338 20 -174 1 -326 0 -338 -3z"/>
<path d="M1504 2036 c-17 -8 -34 -21 -38 -31 -3 -9 -6 -123 -6 -254 0 -258 2
-267 58 -290 20 -9 97 -11 256 -9 l228 3 24 28 c24 28 24 29 24 262 0 255 -4
277 -53 295 -46 16 -454 13 -493 -4z"/>
<path d="M2560 1833 c0 -115 -3 -313 -7 -440 l-6 -233 81 0 82 0 0 93 c0 50 3
184 7 296 l6 204 104 -206 103 -207 55 0 56 0 104 212 105 213 0 -190 c0 -105
3 -241 7 -303 l6 -112 80 0 80 0 -6 212 c-4 116 -7 314 -7 440 l0 229 -87 -3
-87 -3 -120 -243 c-67 -134 -124 -244 -128 -245 -7 -2 -127 235 -225 441 l-24
52 -90 0 -89 0 0 -207z"/>
<path d="M4212 1598 l3 -443 78 -3 77 -3 0 208 c0 235 7 263 70 296 43 22 112
18 142 -9 42 -38 48 -72 48 -289 l0 -205 81 0 80 0 -3 258 c-3 251 -4 258 -27
299 -70 123 -240 149 -368 57 l-23 -16 0 146 0 146 -80 0 -80 0 2 -442z"/>
<path d="M3713 1804 c-64 -20 -130 -74 -154 -128 -33 -72 -30 -76 59 -76 77 0
78 0 89 30 22 59 139 79 186 32 10 -11 23 -38 27 -61 4 -23 7 -41 6 -41 -53
-5 -292 -53 -312 -63 -90 -47 -122 -161 -71 -258 60 -114 260 -134 357 -36
l32 32 -7 -42 -7 -43 81 0 81 0 0 243 c0 146 -5 258 -11 282 -14 49 -71 106
-125 123 -65 21 -172 24 -231 6z m212 -401 c-12 -88 -63 -133 -149 -133 -63 0
-86 19 -86 72 0 55 24 73 111 88 41 7 79 14 84 15 41 13 47 6 40 -42z"/>
<path d="M5097 1806 c-91 -25 -161 -94 -181 -178 l-6 -28 80 0 c74 0 81 2 89
23 22 58 100 83 164 52 28 -13 39 -26 47 -54 19 -67 31 -60 -145 -87 -126 -20
-196 -50 -225 -96 -64 -105 -8 -255 107 -287 92 -26 217 4 257 60 16 23 16 23
16 -19 l0 -43 78 3 77 3 0 250 c0 239 -1 252 -23 292 -29 55 -75 89 -147 108
-71 18 -123 18 -188 1z m200 -408 c-5 -42 -14 -59 -41 -87 -29 -29 -43 -35
-90 -39 -75 -6 -106 13 -106 66 0 58 29 79 130 96 47 8 91 14 99 15 11 1 12
-10 8 -51z"/>
<path d="M2787 973 c-3 -5 -53 -141 -110 -303 -58 -162 -124 -344 -146 -404
-23 -60 -41 -113 -41 -118 0 -5 39 -7 87 -6 l86 3 27 80 27 80 161 3 161 2 27
-85 28 -85 93 0 93 0 -29 78 c-16 42 -81 219 -146 392 -64 173 -122 327 -127
343 -10 27 -11 27 -98 27 -49 0 -91 -3 -93 -7z m148 -356 l54 -157 -110 0
c-83 0 -110 3 -107 13 10 38 103 306 105 303 2 -1 28 -73 58 -159z"/>
<path d="M3360 555 l0 -425 85 0 85 0 0 425 0 425 -85 0 -85 0 0 -425z"/>
<path d="M483 943 c-13 -2 -32 -16 -43 -30 -19 -25 -20 -40 -20 -375 l0 -349
24 -24 c13 -13 39 -26 57 -30 19 -3 165 -5 326 -3 l291 3 26 24 c25 24 26 27
26 158 0 77 -5 143 -11 155 -15 28 -69 48 -129 48 -41 0 -56 5 -75 25 -25 24
-25 27 -25 188 0 227 17 211 -231 213 -107 1 -204 0 -216 -3z"/>
</g>
</svg>
